<svg width="328" height="328" viewBox="0 0 328 328" fill="none" xmlns="http://www.w3.org/2000/svg">
<path d="M294.337 18.7788V22.5767H287.535V42.9473H283.565V22.5767H276.728V18.7788H294.337ZM320.405 18.7788V42.9473H316.435V25.7186L309.081 37.8719H308.597L301.243 25.6841V42.9473H297.273V18.7788H301.554L308.839 30.8631L316.159 18.7788H320.405Z" fill="#1F2329"/>
<path d="M164 315.053C247.424 315.053 315.053 247.424 315.053 164C315.053 80.5758 247.424 12.9473 164 12.9473C80.5758 12.9473 12.9473 80.5758 12.9473 164C12.9473 247.424 80.5758 315.053 164 315.053Z" fill="#725AEC"/>
<path d="M164.065 63.7256V264.258C108.688 264.258 63.7927 219.375 63.7927 163.985C63.7927 108.595 108.675 63.7256 164.065 63.7256Z" fill="white"/>
<path d="M246.895 203.063L207.306 163.474L246.895 123.885C268.765 145.741 268.765 181.193 246.895 203.063Z" fill="white"/>
</svg>
